<svg id="email" xmlns="http://www.w3.org/2000/svg" width="29.427" height="22.415" viewBox="0 0 29.427 22.415">
  <g id="Grupo_111" data-name="Grupo 111">
    <path id="Caminho_345" data-name="Caminho 345" d="M26.841,61H2.586A2.591,2.591,0,0,0,0,63.586V80.829a2.591,2.591,0,0,0,2.586,2.586H26.841a2.591,2.591,0,0,0,2.586-2.586V63.586A2.591,2.591,0,0,0,26.841,61Zm-.357,1.724L14.768,74.439,2.952,62.724ZM1.724,80.472V63.935l8.3,8.233Zm1.219,1.219,8.309-8.309,2.911,2.886a.862.862,0,0,0,1.217,0l2.839-2.839,8.264,8.264ZM27.7,80.472l-8.264-8.264L27.7,63.943Z" transform="translate(0 -61)" fill="#a68ecc"/>
  </g>
</svg>
