<svg id="email-dark" xmlns="http://www.w3.org/2000/svg" width="54.382" height="41.424" viewBox="0 0 54.382 41.424">
  <g id="Grupo_111" data-name="Grupo 111">
    <path id="Caminho_345" data-name="Caminho 345" d="M49.6,61H4.78A4.788,4.788,0,0,0,0,65.78V97.644a4.787,4.787,0,0,0,4.78,4.78H49.6a4.787,4.787,0,0,0,4.78-4.78V65.78A4.787,4.787,0,0,0,49.6,61Zm-.66,3.186-21.65,21.65L5.455,64.186ZM3.186,96.984V66.424L18.532,81.638ZM5.44,99.237,20.795,83.882l5.38,5.334a1.593,1.593,0,0,0,2.248,0l5.246-5.246L48.942,99.237ZM51.2,96.984,35.923,81.712,51.2,66.439Z" transform="translate(0 -61)" fill="#4d4865"/>
  </g>
</svg>
