<svg xmlns="http://www.w3.org/2000/svg" width="309" height="309" viewBox="0 0 309 309">
  <g id="girl-profile" transform="translate(-243 -1350)">
    <circle id="Elipse_72" data-name="Elipse 72" cx="154.5" cy="154.5" r="154.5" transform="translate(243 1350)" fill="rgba(158,184,246,0.52)"/>
    <g id="girl" transform="translate(329.252 1406.351)">
      <path id="Caminho_637" data-name="Caminho 637" d="M214.463,184.642v17.395a3.543,3.543,0,0,1-3.544,3.544H81.545A3.544,3.544,0,0,1,78,202.037V184.642a33,33,0,0,1,13.292-26.491V44.085A44.086,44.086,0,0,1,135.377,0H157.53a44.086,44.086,0,0,1,44.085,44.085V158.492a32.981,32.981,0,0,1,12.849,26.15Z" transform="translate(-78 0)" fill="#ffd6a6"/>
      <path id="Caminho_638" data-name="Caminho 638" d="M214.463,373.21V390.6a3.543,3.543,0,0,1-3.544,3.544H81.545A3.543,3.543,0,0,1,78,390.6V373.21a33.036,33.036,0,0,1,33.039-33.039,18.278,18.278,0,0,0,7.488-1.591c0,.044-.332-.253,27.7,21.453,27.8-21.52,27.7-21.408,27.7-21.453a18.279,18.279,0,0,0,7.488,1.591A33.041,33.041,0,0,1,214.463,373.21Z" transform="translate(-78 -188.568)" fill="#42434d"/>
      <path id="Caminho_639" data-name="Caminho 639" d="M206.8,89.556V67.071a2.662,2.662,0,0,0-1.814-2.51,35.086,35.086,0,0,1-19.151-15.919,2.648,2.648,0,0,0-4.533-.136,48.534,48.534,0,0,1-17.839,16.262,2.653,2.653,0,0,1-3.913-2.376,18.483,18.483,0,0,0-.492-4.4,2.652,2.652,0,0,0-4.628-1.086,34.725,34.725,0,0,1-32.293,12.074,2.652,2.652,0,0,0-3.064,2.625V89.556A43.868,43.868,0,0,0,146.17,130.1l-.066.164v3.026A18.331,18.331,0,0,1,127.747,151.6,32.909,32.909,0,0,0,108,158.151V44.085A44.085,44.085,0,0,1,152.085,0h22.153a44.085,44.085,0,0,1,44.085,44.085V158.492a32.879,32.879,0,0,0-20.19-6.89,18.331,18.331,0,0,1-18.356-18.316V130.26l-.066-.164A43.868,43.868,0,0,0,206.8,89.556Z" transform="translate(-94.708 0)" fill="#42434d"/>
      <path id="Caminho_640" data-name="Caminho 640" d="M218.912,124.009a2.661,2.661,0,0,1,1.814,2.51V149a43.868,43.868,0,0,1-27.093,40.54C164.871,201.484,133,180.274,133,149V131.053a2.653,2.653,0,0,1,3.065-2.625,34.723,34.723,0,0,0,32.291-12.072,2.653,2.653,0,0,1,4.63,1.087,18.479,18.479,0,0,1,.491,4.4,2.653,2.653,0,0,0,3.913,2.376,48.531,48.531,0,0,0,17.839-16.262,2.648,2.648,0,0,1,4.533.136,35.081,35.081,0,0,0,19.15,15.919Z" transform="translate(-108.632 -59.448)" fill="#ffdfba"/>
      <path id="Caminho_641" data-name="Caminho 641" d="M13.449,0A46.648,46.648,0,0,0,18.8,3.322l8.239,51.6-3.532,2.148-2.876,1.455-6.276,2.3L7.465,62.3,0,39.345,8.1,3.322A46.655,46.655,0,0,0,13.449,0Z" transform="translate(33.775 7.215) rotate(16)" fill="#a68ecc"/>
      <path id="Caminho_642" data-name="Caminho 642" d="M227.544,301.069a43.983,43.983,0,0,1-34.674,0c.6-2.493.5-4.107.5-7.275l.066-.164a43.953,43.953,0,0,0,33.54,0l.066.164c0,3.169-.1,4.783.5,7.275Z" transform="translate(-141.975 -163.533)" fill="#f7c388"/>
      <path id="Caminho_643" data-name="Caminho 643" d="M190.841,3.233c5.4,2.2,3.611,10.214-2.218,10.072-.894-.022-23.691-.013-23.247-.013a44.085,44.085,0,0,0-44.085,44.085V68.985a2.653,2.653,0,0,0-2.215,2.618c0,18.9-.549,23.4,2.215,31.754v48.874A32.955,32.955,0,0,0,108,158.151V44.085A44.085,44.085,0,0,1,152.085,0h22.153a43.958,43.958,0,0,1,16.6,3.233Z" transform="translate(-94.708 0)" fill="#4d4e59"/>
      <path id="Caminho_644" data-name="Caminho 644" d="M166.937,204.553c7.209,4.508,1.52,15.571-6.371,12.4A43.872,43.872,0,0,1,133,176.224V158.271a2.651,2.651,0,0,1,3.066-2.623,35.691,35.691,0,0,0,3.622.393,7,7,0,0,1,6.6,6.987v4.335a43.547,43.547,0,0,0,20.645,37.19Z" transform="translate(-108.632 -86.667)" fill="#ffebd2"/>
      <path id="Caminho_645" data-name="Caminho 645" d="M130.6,347.933a18.251,18.251,0,0,1-6.269,1.1,33.039,33.039,0,0,0-33.039,33.039v12.078H81.545A3.544,3.544,0,0,1,78,390.6V373.21a33.045,33.045,0,0,1,33.039-33.039,18.278,18.278,0,0,0,7.488-1.591C118.527,338.624,118.422,338.5,130.6,347.933Z" transform="translate(-78 -188.568)" fill="#4d4e59"/>
      <path id="Caminho_648" data-name="Caminho 648" d="M267.28,347.933a18.251,18.251,0,0,0,6.269,1.1,33.039,33.039,0,0,1,33.039,33.039v12.078h9.747a3.544,3.544,0,0,0,3.545-3.544V373.21a33.045,33.045,0,0,0-33.039-33.039,18.278,18.278,0,0,1-7.488-1.591C279.353,338.624,279.459,338.5,267.28,347.933Z" transform="translate(-183.417 -188.568)" fill="#2c2c33"/>
    </g>
    <g id="headphones_1_" data-name="headphones (1)" transform="translate(318 1376.254)">
      <g id="Grupo_208" data-name="Grupo 208" transform="translate(11.907 4.746)">
        <g id="Grupo_206" data-name="Grupo 206" transform="translate(0 21.378)">
          <path id="Caminho_651" data-name="Caminho 651" d="M383.857,157.862H402.5V119.881A56.162,56.162,0,0,0,390.256,84.82l-10.022,3.006-1.372,8.387a40.246,40.246,0,0,1,7.665,23.668v12.424Z" transform="translate(-261.622 -77.82)" fill="#313131"/>
          <path id="Caminho_652" data-name="Caminho 652" d="M44.6,119.881v37.981H63.241l-2.67-25.557V119.882a40.245,40.245,0,0,1,7.665-23.668l-4.219-8.387L56.843,84.82A56.162,56.162,0,0,0,44.6,119.881Z" transform="translate(-49.598 -77.82)" fill="#313131"/>
        </g>
        <g id="Grupo_207" data-name="Grupo 207" transform="translate(5.245 11.64)">
          <path id="Caminho_653" data-name="Caminho 653" d="M249.4,4.746l-4.068,8.8,4.068,5.058c19.259,0,38.69,5.5,49.2,14.324l11.055-11.349C294.875,10.287,274.946,4.746,249.4,4.746Z" transform="translate(-186.27 -4.746)" fill="#313131"/>
          <path id="Caminho_654" data-name="Caminho 654" d="M153.593,4.746c-25.544,0-46.5,5.786-61.286,17.082l11.4,11.017c10.511-8.824,30.627-14.237,49.886-14.237Z" transform="translate(-90.462 -4.746)" fill="#4d4d4d"/>
        </g>
      </g>
      <g id="Grupo_209" data-name="Grupo 209" transform="translate(-5 80.609)">
        <path id="Caminho_655" data-name="Caminho 655" d="M23.877,295.536a23.877,23.877,0,0,0,0,47.753h10.3V295.536Z" transform="translate(0 -286.766)" fill="#707070"/>
        <path id="Caminho_656" data-name="Caminho 656" d="M106.028,262.685h-1.611v54.066h1.611c5.678,0,10.3-6.937,10.3-15.464V278.149C116.324,269.622,111.705,262.685,106.028,262.685Z" transform="translate(-76.54 -256.942)" fill="#cbcbcb"/>
      </g>
      <g id="Grupo_210" data-name="Grupo 210" transform="translate(115.218 80.609)">
        <path id="Caminho_657" data-name="Caminho 657" d="M394.3,295.536a23.877,23.877,0,0,1,0,47.753H384V295.536Z" transform="translate(-368.7 -286.766)" fill="#707070"/>
        <path id="Caminho_658" data-name="Caminho 658" d="M337.105,262.685h1.629v54.777h-1.629c-5.742,0-10.414-7.028-10.414-15.667V278.352C326.691,269.713,331.363,262.685,337.105,262.685Z" transform="translate(-317.138 -256.942)" fill="#cbcbcb"/>
      </g>
    </g>
  </g>
</svg>
