<svg id="github-dark" xmlns="http://www.w3.org/2000/svg" width="52.323" height="41.423" viewBox="0 0 52.323 41.423">
  <path id="Caminho_346" data-name="Caminho 346" d="M26.794,43.921c8.132,0,19.49.2,23.622-8.069a23.158,23.158,0,0,0,1.908-10.247h0a18.47,18.47,0,0,0-4.251-12.32,16.478,16.478,0,0,0,.839-5.2A10.558,10.558,0,0,0,47.317,2.5c-4.883,0-8.045.916-11.751,3.8A38.066,38.066,0,0,0,26.8,5.3a42.21,42.21,0,0,0-9.669,1.079C13.373,3.471,10.212,2.5,5.274,2.5A10.675,10.675,0,0,0,3.684,8.089a16.724,16.724,0,0,0,.839,5.263A18.44,18.44,0,0,0,0,25.606,22.923,22.923,0,0,0,2.2,35.855C6.5,44.216,18.531,43.921,26.794,43.921ZM15.263,22.142a44.419,44.419,0,0,1,6.1.647c7.452,1.134,11.369-.647,15.937-.647,5.1,0,8.012,4.175,8.012,8.91,0,9.481-8.753,10.927-16.416,10.927H23.646c-7.63,0-16.395-1.454-16.395-10.927,0-4.735,2.908-8.91,8.012-8.91Z" transform="translate(0 -2.499)" fill="#4d4865"/>
  <path id="Caminho_347" data-name="Caminho 347" d="M18.821,24.759c2.812,0,4-3.689,4-5.945s-1.188-5.945-4-5.945-4,3.689-4,5.945S16.008,24.759,18.821,24.759Z" transform="translate(17.489 9.739)" fill="#4d4865"/>
  <path id="Caminho_348" data-name="Caminho 348" d="M9.636,24.758c2.812,0,4-3.689,4-5.945s-1.19-5.943-4-5.943-4,3.689-4,5.945,1.188,5.943,4,5.943Z" transform="translate(6.65 9.74)" fill="#4d4865"/>
</svg>
