<svg id="github" xmlns="http://www.w3.org/2000/svg" width="28.313" height="22.415" viewBox="0 0 28.313 22.415">
  <path id="Caminho_346" data-name="Caminho 346" d="M14.5,24.913c4.4,0,10.547.106,12.782-4.366A12.531,12.531,0,0,0,28.313,15h0a9.994,9.994,0,0,0-2.3-6.666,8.916,8.916,0,0,0,.454-2.814A5.713,5.713,0,0,0,25.6,2.5a9.174,9.174,0,0,0-6.359,2.055A20.6,20.6,0,0,0,14.5,4.017,22.841,22.841,0,0,0,9.271,4.6,9.279,9.279,0,0,0,2.854,2.5a5.776,5.776,0,0,0-.86,3.024,9.05,9.05,0,0,0,.454,2.848A9.978,9.978,0,0,0,0,15a12.4,12.4,0,0,0,1.191,5.546C3.516,25.073,10.027,24.913,14.5,24.913ZM8.259,13.128a24.036,24.036,0,0,1,3.3.35c4.032.613,6.152-.35,8.624-.35,2.759,0,4.335,2.259,4.335,4.821,0,5.131-4.736,5.913-8.883,5.913H12.8c-4.129,0-8.871-.787-8.871-5.913,0-2.562,1.574-4.821,4.335-4.821Z" transform="translate(0 -2.499)" fill="#a68ecc"/>
  <path id="Caminho_347" data-name="Caminho 347" d="M16.985,19.3c1.522,0,2.165-2,2.165-3.217s-.643-3.217-2.165-3.217-2.165,2-2.165,3.217S15.463,19.3,16.985,19.3Z" transform="translate(2.663 -0.635)" fill="#a68ecc"/>
  <path id="Caminho_348" data-name="Caminho 348" d="M7.8,19.3c1.522,0,2.165-2,2.165-3.217S9.32,12.87,7.8,12.87s-2.165,2-2.165,3.217S6.278,19.3,7.8,19.3Z" transform="translate(1.013 -0.635)" fill="#a68ecc"/>
</svg>
