<svg xmlns="http://www.w3.org/2000/svg" width="77.121" height="65.382" viewBox="0 0 77.121 65.382">
  <g id="heart" transform="translate(0 -38.967)">
    <path id="Caminho_663" data-name="Caminho 663" d="M72.089,49.028V44H67.059V38.969H46.942V44H41.912v5.029H35.207V44H30.177V38.969H10.06V44H5.03v5.029H0V79.2H5.03v5.029H10.06v5.029h5.029v5.029H25.148v5.029H35.207v5.029h6.706V99.322H51.971V94.292H62.03V89.263h5.029V84.233h5.029V79.206h5.033V49.03Z" transform="translate(-0.001 -0.002)" fill="#8d78af"/>
    <g id="Grupo_219" data-name="Grupo 219" transform="translate(0 38.967)">
      <path id="Caminho_664" data-name="Caminho 664" d="M245.463,38.969V44h-5.029v5.029h-6.706v5.029h11.735V49.028h5.029V38.969Z" transform="translate(-198.522 -38.969)" fill="#fff"/>
      <path id="Caminho_665" data-name="Caminho 665" d="M10.06,44H5.03v5.029H0v5.029H10.06V49.028h5.029V38.969H10.06Z" transform="translate(-0.001 -38.969)" fill="#fff"/>
    </g>
    <rect id="Retângulo_121" data-name="Retângulo 121" width="5.029" height="5.029" transform="translate(5.029 43.996)" fill="#a68ecc"/>
    <rect id="Retângulo_122" data-name="Retângulo 122" width="5.029" height="5.029" transform="translate(67.058 43.996)" fill="#a68ecc"/>
    <rect id="Retângulo_123" data-name="Retângulo 123" width="5.029" height="5.029" transform="translate(41.911 43.996)" fill="#a68ecc"/>
    <rect id="Retângulo_124" data-name="Retângulo 124" width="5.029" height="5.029" transform="translate(5.029 79.202)" fill="#a68ecc"/>
    <rect id="Retângulo_125" data-name="Retângulo 125" width="5.029" height="5.029" transform="translate(67.058 79.202)" fill="#a68ecc"/>
    <rect id="Retângulo_126" data-name="Retângulo 126" width="10.059" height="5.029" transform="translate(25.147 94.29)" fill="#a68ecc"/>
    <rect id="Retângulo_127" data-name="Retângulo 127" width="10.059" height="5.029" transform="translate(41.911 94.29)" fill="#a68ecc"/>
    <rect id="Retângulo_128" data-name="Retângulo 128" width="5.029" height="5.029" transform="translate(30.176 43.996)" fill="#a68ecc"/>
    <rect id="Retângulo_129" data-name="Retângulo 129" width="6.706" height="5.029" transform="translate(35.206 49.026)" fill="#a68ecc"/>
    <rect id="Retângulo_130" data-name="Retângulo 130" width="10.059" height="5.029" transform="translate(51.97 89.261)" fill="#a68ecc"/>
    <rect id="Retângulo_131" data-name="Retângulo 131" width="10.059" height="5.029" transform="translate(15.088 89.261)" fill="#a68ecc"/>
    <rect id="Retângulo_132" data-name="Retângulo 132" width="5.029" height="5.029" transform="translate(10.059 84.231)" fill="#a68ecc"/>
    <rect id="Retângulo_133" data-name="Retângulo 133" width="5.029" height="5.029" transform="translate(62.029 84.231)" fill="#a68ecc"/>
    <rect id="Retângulo_134" data-name="Retângulo 134" width="6.706" height="5.029" transform="translate(35.206 99.32)" fill="#a68ecc"/>
    <rect id="Retângulo_135" data-name="Retângulo 135" width="20.117" height="5.029" transform="translate(10.059 38.967)" fill="#a68ecc"/>
    <rect id="Retângulo_136" data-name="Retângulo 136" width="20.117" height="5.029" transform="translate(46.941 38.967)" fill="#a68ecc"/>
    <rect id="Retângulo_137" data-name="Retângulo 137" width="5.029" height="30.176" transform="translate(0 49.026)" fill="#a68ecc"/>
    <rect id="Retângulo_138" data-name="Retângulo 138" width="5.029" height="30.176" transform="translate(72.088 49.026)" fill="#a68ecc"/>
  </g>
</svg>
