<svg xmlns="http://www.w3.org/2000/svg" width="94.997" height="106" viewBox="0 0 94.997 106">
  <g id="html" transform="translate(-737.145 -3397.502)">
    <path id="Caminho_131" data-name="Caminho 131" d="M0,0,9.164,95.545,47.772,106,85.833,95.545,95,0ZM0,0" transform="translate(737.145 3397.502)" fill="#9eb8f6"/>
    <path id="Caminho_132" data-name="Caminho 132" d="M230.746,0V106l38.061-10.455L277.972,0Zm0,0" transform="translate(554.17 3397.502)" fill="#80a3f8"/>
    <path id="Caminho_133" data-name="Caminho 133" d="M141.681,98.264H101.132l.679,7.418h39.678l-3.207,41.446L113.4,154.363l-26.7-8.305V129.25h16.588v5.006l10.119,3.127,9.587-3.129.7-12.41H86.956L82.808,82.308H141.68Zm0,0" transform="translate(671.479 3332.235)" fill="#fff"/>
    <path id="Caminho_135" data-name="Caminho 135" d="M241,211.366l-.7,12.41-9.557,3.119v16.981l24.845-7.227L258.8,195.2H230.746v16.163Zm0,0" transform="translate(554.169 3242.712)" fill="#deecf1"/>
  </g>
</svg>
