<svg xmlns="http://www.w3.org/2000/svg" width="106" height="106" viewBox="0 0 106 106">
  <g id="javascript" transform="translate(-382.638 -3390.83)">
    <path id="Caminho_148" data-name="Caminho 148" d="M106,53a52.732,52.732,0,1,1-3.723-19.552A52.842,52.842,0,0,1,106,53Z" transform="translate(382.638 3390.83)" fill="#9eb8f6"/>
    <path id="Caminho_149" data-name="Caminho 149" d="M316.45,191.01c-1.475-4.278-7.524-4.278-8.7-.738s2.8,5.606,9,7.671,10.032,7.524,9.294,12.392-2.8,11.212-15.047,11.212c-7.652,0-11.905-4.783-14.019-8.37l6.938-4.169s2.36,5.016,6.786,5.016,6.2-1.475,6.2-4.868c0-4.13-14.31-5.606-16.522-12.687s.738-17.112,11.064-16.375a16.009,16.009,0,0,1,11.9,5.942Z" transform="translate(147.147 3248.052)" fill="#f2f2f2"/>
    <path id="Caminho_150" data-name="Caminho 150" d="M170.736,183.8v28.324c0,3.393-2.95,5.163-5.9,4.573s-4.278-4.13-4.278-4.13l-6.786,4.573s1.475,6.786,10.769,7.376,14.6-5.016,14.6-9.736V183.8Z" transform="translate(260.703 3245.078)" fill="#f2f2f2"/>
    <path id="Caminho_151" data-name="Caminho 151" d="M73.968,45.213v80.9a53.026,53.026,0,0,0,7.15,6.059h61.073a53.141,53.141,0,0,0,5.8-4.746H78.714V49.959h77.469v67.647a52.713,52.713,0,0,0,4.748-9.2V45.213Z" transform="translate(323.984 3354.977)" fill="#f2f2f2"/>
    <circle id="Elipse_9" data-name="Elipse 9" cx="8.409" cy="8.409" r="8.409" transform="translate(392.417 3452.635)" fill="#fff"/>
  </g>
</svg>
