<svg id="linkedin" xmlns="http://www.w3.org/2000/svg" width="22.415" height="22.415" viewBox="0 0 22.415 22.415">
  <path id="Caminho_338" data-name="Caminho 338" d="M22.97,22.915h.006V14.694c0-4.022-.866-7.12-5.567-7.12a4.881,4.881,0,0,0-4.4,2.416h-.065V7.949H8.489V22.914h4.642V15.5c0-1.951.37-3.838,2.786-3.838,2.381,0,2.416,2.227,2.416,3.963v7.286Z" transform="translate(-0.561 -0.5)" fill="#a68ecc"/>
  <path id="Caminho_339" data-name="Caminho 339" d="M.4,7.977H5.043V22.942H.4Z" transform="translate(-0.026 -0.527)" fill="#a68ecc"/>
  <path id="Caminho_340" data-name="Caminho 340" d="M2.692,0A2.7,2.7,0,1,0,5.383,2.692,2.692,2.692,0,0,0,2.692,0Z" fill="#a68ecc"/>
</svg>
