<svg id="linkedin-dark" xmlns="http://www.w3.org/2000/svg" width="41.424" height="41.423" viewBox="0 0 41.424 41.423">
  <path id="Caminho_338" data-name="Caminho 338" d="M35.25,35.925v0h.01V20.731c0-7.432-1.6-13.157-10.289-13.157a9.02,9.02,0,0,0-8.124,4.465h-.121V8.268H8.489V35.923h8.578V22.229c0-3.606.683-7.092,5.149-7.092,4.4,0,4.465,4.115,4.465,7.323V35.925Z" transform="translate(6.163 5.499)" fill="#4d4865"/>
  <path id="Caminho_339" data-name="Caminho 339" d="M.4,7.977H8.984V35.632H.4Z" transform="translate(0.287 5.791)" fill="#4d4865"/>
  <path id="Caminho_340" data-name="Caminho 340" d="M4.974,0A5,5,0,1,0,9.949,4.974,4.976,4.976,0,0,0,4.974,0Z" fill="#4d4865"/>
</svg>
