<svg xmlns="http://www.w3.org/2000/svg" width="106" height="106" viewBox="0 0 106 106">
  <path id="ps" d="M53,0h0A53,53,0,0,0,0,53H0a53,53,0,0,0,53,53h0A53.215,53.215,0,0,0,97.064,82.461,52.27,52.27,0,0,0,106,53h0A53.057,53.057,0,0,0,53,0Zm1.57,54.178A13.682,13.682,0,0,1,45.1,57.886H43.621V72.368H36.075V34.025a38.257,38.257,0,0,1,7.9-.742c4.493,0,8.026.654,10.556,3.01,2.312,2.007,3.359,5.235,3.359,8.55A13.03,13.03,0,0,1,54.57,54.178Zm11.123,18.5a12.586,12.586,0,0,1-6.456-1.614l1.4-5.54A10.51,10.51,0,0,0,65.694,67c1.963,0,3.053-.872,3.053-2.53,0-1.44-.829-2.356-3.272-3.8-4.624-2.574-5.714-5.54-5.714-8.114,0-5.06,3.621-8.9,9.291-8.9a13.184,13.184,0,0,1,5.714,1.265l-1.309,5.54a7.676,7.676,0,0,0-3.926-1.134c-1.919,0-2.835,1.134-2.835,2.443,0,1.265.654,1.963,3.272,3.533,4.144,2.356,5.714,5.322,5.714,8.55C75.683,69.576,71.539,72.673,65.694,72.673ZM50.383,45.453c0,3.621-1.745,6.325-5.54,6.325a3.5,3.5,0,0,1-1.221-.131V39.7a5.537,5.537,0,0,1,1.832-.305C48.987,39.39,50.383,42.051,50.383,45.453Z" fill="#9eb8f6"/>
</svg>
