<svg xmlns="http://www.w3.org/2000/svg" width="106" height="106" viewBox="0 0 106 106">
  <g id="react" transform="translate(-1082.375 -3680.256)">
    <path id="Caminho_162" data-name="Caminho 162" d="M106,53A53,53,0,1,1,53,0,52.927,52.927,0,0,1,106,53Z" transform="translate(1082.375 3680.256)" fill="#9eb8f6"/>
    <path id="Caminho_163" data-name="Caminho 163" d="M164.595,136.742c-.249-1.668-.578-3.386-.985-5.143q-.539-2.314-1.251-4.712a102.79,102.79,0,0,0-4.881-12.955q-1.308-2.888-2.814-5.792-1.324-2.554-2.794-5.1t-3.024-4.97q-1.757-2.749-3.61-5.329a102.332,102.332,0,0,0-8.783-10.705Q134.736,80.221,133,78.6q-1.977-1.85-3.965-3.427c-8.634-6.852-16.363-8.91-21.767-5.792S99.779,80.219,101.4,91.122c.247,1.668.578,3.386.987,5.143q.532,2.314,1.249,4.712a102.316,102.316,0,0,0,4.883,12.955q1.305,2.888,2.811,5.79,1.324,2.557,2.794,5.1t3.024,4.97q1.76,2.752,3.61,5.331a102.263,102.263,0,0,0,8.783,10.7q1.718,1.814,3.459,3.438,1.977,1.85,3.963,3.425a39.608,39.608,0,0,0,9.086,5.593,52.81,52.81,0,0,0,18.494-8.775A36.162,36.162,0,0,0,164.595,136.742Zm-4.861,11.98c-.63,2.722-1.788,4.587-3.443,5.541s-3.848,1.026-6.521.212a31.456,31.456,0,0,1-9.779-5.6q-1.766-1.4-3.537-3.044-1.734-1.61-3.459-3.434c-1.97-2.083-3.918-4.364-5.818-6.811q-1.9-2.45-3.736-5.113c-1.768-2.568-3.476-5.273-5.1-8.085s-3.115-5.643-4.454-8.457q-1.39-2.911-2.56-5.79c-1.171-2.869-2.173-5.7-2.993-8.442-.476-1.6-.894-3.172-1.242-4.71-.359-1.566-.651-3.1-.872-4.585a31.407,31.407,0,0,1,.039-11.263c.63-2.722,1.79-4.587,3.443-5.541a6.189,6.189,0,0,1,3.14-.775,11.641,11.641,0,0,1,3.381.565,31.441,31.441,0,0,1,9.779,5.6q1.766,1.4,3.537,3.049,1.737,1.606,3.456,3.429c1.972,2.083,3.92,4.364,5.822,6.813q1.9,2.45,3.736,5.112c1.766,2.568,3.474,5.273,5.1,8.083s3.115,5.643,4.454,8.457q1.39,2.914,2.56,5.792c1.171,2.869,2.173,5.695,2.993,8.44q.714,2.4,1.244,4.71c.357,1.566.649,3.1.87,4.585A31.392,31.392,0,0,1,159.733,148.722Z" transform="translate(1002.379 3626.354)" fill="#f2f2f2"/>
    <path id="Caminho_164" data-name="Caminho 164" d="M94.527,190.593q-2.353-.927-4.948-1.718-2.271-.691-4.705-1.273a102.488,102.488,0,0,0-13.657-2.248c-2.1-.21-4.244-.363-6.416-.46-1.917-.089-3.859-.134-5.817-.134s-3.9.045-5.819.134c-2.174.1-4.318.253-6.419.46A102.456,102.456,0,0,0,33.091,187.6q-2.43.58-4.705,1.273-2.589.788-4.948,1.718c-10.247,4.042-15.894,9.7-15.894,15.933s5.646,11.891,15.894,15.935q2.353.927,4.945,1.718,2.271.691,4.705,1.271a102.412,102.412,0,0,0,13.659,2.25c2.1.208,4.244.361,6.419.461,1.917.089,3.859.132,5.817.132s3.9-.043,5.815-.132q3.261-.149,6.419-.461a102.149,102.149,0,0,0,13.659-2.25q2.43-.58,4.705-1.273c1.724-.525,3.377-1.1,4.945-1.716,10.25-4.044,15.894-9.7,15.894-15.935S104.776,194.635,94.527,190.593Zm7.944,21.678a31.4,31.4,0,0,1-9.733,5.661q-2.1.827-4.407,1.537-2.262.7-4.7,1.275c-2.789.664-5.737,1.208-8.807,1.63q-3.07.425-6.291.677c-3.109.249-6.3.374-9.551.374s-6.442-.125-9.551-.372c-2.144-.169-4.247-.4-6.293-.679-3.07-.422-6.018-.966-8.807-1.63q-2.434-.577-4.7-1.275-2.3-.707-4.407-1.537a31.4,31.4,0,0,1-9.733-5.661c-2.042-1.9-3.078-3.837-3.078-5.745s1.036-3.841,3.078-5.745a31.4,31.4,0,0,1,9.733-5.661q2.1-.827,4.407-1.537,2.262-.7,4.7-1.275c2.789-.664,5.737-1.208,8.807-1.63,2.047-.283,4.149-.51,6.293-.679,3.109-.246,6.3-.372,9.551-.372s6.442.125,9.551.374q3.216.25,6.291.677c3.07.422,6.018.966,8.807,1.63q2.434.577,4.7,1.275,2.3.707,4.407,1.537a31.4,31.4,0,0,1,9.733,5.661c2.042,1.9,3.078,3.837,3.078,5.745S104.512,210.367,102.47,212.271Z" transform="translate(1076.393 3533.76)" fill="#f2f2f2"/>
    <path id="Caminho_165" data-name="Caminho 165" d="M158.727,69.38c-5.4-3.118-13.133-1.06-21.767,5.792Q134.98,76.746,133,78.6q-1.737,1.619-3.459,3.438a102.541,102.541,0,0,0-8.785,10.7q-1.847,2.577-3.608,5.329-1.555,2.424-3.024,4.97t-2.794,5.1q-1.5,2.9-2.811,5.79a102.444,102.444,0,0,0-4.883,12.955q-.714,2.4-1.251,4.714-.61,2.635-.985,5.141a36.142,36.142,0,0,0,.054,12.765,52.781,52.781,0,0,0,18.495,8.778,39.6,39.6,0,0,0,9.086-5.593q1.984-1.574,3.965-3.425,1.737-1.619,3.457-3.436a102.589,102.589,0,0,0,8.783-10.705q1.847-2.577,3.61-5.331,1.555-2.424,3.024-4.97t2.794-5.1q1.5-2.9,2.814-5.792a102.642,102.642,0,0,0,4.881-12.955q.711-2.395,1.249-4.712c.409-1.757.738-3.475.987-5.143C166.214,80.219,164.132,72.5,158.727,69.38ZM157.658,99.7c-.82,2.746-1.822,5.571-2.993,8.44q-1.169,2.872-2.56,5.792c-1.34,2.815-2.829,5.645-4.454,8.457s-3.331,5.515-5.1,8.083q-1.831,2.661-3.738,5.115c-1.9,2.447-3.848,4.727-5.82,6.811q-1.717,1.817-3.456,3.431-1.766,1.642-3.537,3.046a31.459,31.459,0,0,1-9.779,5.6c-2.673.814-4.868.744-6.521-.212s-2.814-2.819-3.443-5.541a31.4,31.4,0,0,1-.039-11.263c.221-1.486.513-3.018.87-4.584q.526-2.307,1.244-4.71c.82-2.746,1.822-5.573,2.993-8.442q1.169-2.872,2.56-5.79c1.34-2.815,2.829-5.645,4.454-8.457s3.331-5.517,5.1-8.085q1.828-2.658,3.733-5.11c1.9-2.449,3.85-4.729,5.82-6.813q1.721-1.821,3.459-3.431,1.769-1.642,3.537-3.046a31.453,31.453,0,0,1,9.778-5.6,11.642,11.642,0,0,1,3.381-.565,6.184,6.184,0,0,1,3.14.775c1.656.954,2.814,2.819,3.443,5.541a31.4,31.4,0,0,1,.039,11.263c-.221,1.486-.513,3.018-.872,4.584C158.552,96.528,158.134,98.1,157.658,99.7Z" transform="translate(1002.377 3626.354)" fill="#f2f2f2"/>
    <circle id="Elipse_10" data-name="Elipse 10" cx="9.66" cy="9.66" r="9.66" transform="translate(1125.715 3730.626)" fill="#f2f2f2"/>
  </g>
</svg>
