<svg xmlns="http://www.w3.org/2000/svg" width="50.983" height="41.424" viewBox="0 0 50.983 41.424">
  <path id="twitter-dark" d="M50.983,52.9a21.792,21.792,0,0,1-6.022,1.651,10.393,10.393,0,0,0,4.6-5.777,20.888,20.888,0,0,1-6.628,2.53,10.451,10.451,0,0,0-18.08,7.147,10.762,10.762,0,0,0,.242,2.383A29.584,29.584,0,0,1,3.55,49.905,10.455,10.455,0,0,0,6.762,63.875a10.322,10.322,0,0,1-4.722-1.287V62.7a10.5,10.5,0,0,0,8.374,10.27,10.432,10.432,0,0,1-2.74.344,9.241,9.241,0,0,1-1.979-.178,10.551,10.551,0,0,0,9.766,7.281A21,21,0,0,1,2.5,84.877,19.577,19.577,0,0,1,0,84.733a29.425,29.425,0,0,0,16.034,4.69c19.233,0,29.749-15.932,29.749-29.742,0-.462-.016-.908-.038-1.351A20.851,20.851,0,0,0,50.983,52.9Z" transform="translate(0 -48)" fill="#4d4865"/>
</svg>
