<svg xmlns="http://www.w3.org/2000/svg" width="27.588" height="22.415" viewBox="0 0 27.588 22.415">
  <path id="twitter" d="M27.588,50.654a11.792,11.792,0,0,1-3.259.893,5.624,5.624,0,0,0,2.488-3.126,11.3,11.3,0,0,1-3.586,1.369,5.655,5.655,0,0,0-9.783,3.867,5.824,5.824,0,0,0,.131,1.29A16.009,16.009,0,0,1,1.921,49.031,5.657,5.657,0,0,0,3.659,56.59a5.585,5.585,0,0,1-2.555-.7v.062a5.682,5.682,0,0,0,4.531,5.557,5.645,5.645,0,0,1-1.483.186,5,5,0,0,1-1.071-.1,5.71,5.71,0,0,0,5.285,3.94,11.364,11.364,0,0,1-7.012,2.412A10.593,10.593,0,0,1,0,67.877a15.922,15.922,0,0,0,8.676,2.538c10.407,0,16.1-8.621,16.1-16.094,0-.25-.009-.491-.021-.731A11.283,11.283,0,0,0,27.588,50.654Z" transform="translate(0 -48)" fill="#a68ecc"/>
</svg>
