<svg xmlns="http://www.w3.org/2000/svg" width="1920" height="512.783" viewBox="0 0 1920 512.783">
  <g id="wave-white" transform="translate(0 -536.5)">
    <path id="wave-clear" d="M0,429.284H45.733c45.733,0,136.933,0,228.933-51.4C365.733,327.246,457.333,223.282,548,223.86c92-.578,184,103.386,274.667,123.216,91.6,20.6,182.667-41.008,274.667-112.82C1188.533,161.674,1280,80.814,1372,69.84c90.8-10.2,182.667,51.4,273.333,92.412,91.867,41.778,182.667,61.03,229.333,72L1920,244.46V552.5H0Z" transform="translate(0 467.783)" fill="rgba(255,255,255,0.09)"/>
    <path id="wave" d="M0,429.284H45.733c45.733,0,136.933,0,228.933-51.4C365.733,327.246,457.333,223.282,548,223.86c92-.578,184,103.386,274.667,123.216,91.6,20.6,182.667-41.008,274.667-112.82C1188.533,161.674,1280,80.814,1372,69.84c90.8-10.2,182.667,51.4,273.333,92.412,91.867,41.778,182.667,61.03,229.333,72L1920,244.46V552.5H0Z" transform="translate(0 496.783)" fill="#fff"/>
  </g>
</svg>
