<svg xmlns="http://www.w3.org/2000/svg" width="1920" height="261.135" viewBox="0 0 1920 261.135">
  <g id="waves-purples" transform="translate(0 -5917.865)">
    <path id="wave-purple-lighter" d="M1920,246.342l-64-4.438c-64-4.772-73.066-23.023-201.066-59.026S1280,94.8,1152,67.752c-128-26.542-256-18.169-384,0-128,17.834-256,44.627-384,40.189C256,103.168,128,68,64,49.834L0,32V273.135H1920Z" transform="translate(0 5885.865)" fill="#b7a4d6"/>
    <path id="wave-purple-light" d="M0,209.956l64-3.684c64-3.962,192-10.914,320-40.8S640,84.136,768,61.683c128-22.036,256-15.085,384,0,128,14.806,256,37.051,384,33.367,128-3.962,256-33.158,320-48.243L1920,32V232.2H0Z" transform="translate(0 5946.799)" fill="#a68ecc"/>
  </g>
</svg>
