<svg xmlns="http://www.w3.org/2000/svg" width="26"  viewBox="0 0 35.714 31.51">
  <path id="work-icon" d="M33.7,4.068H24.476V3.051A3.055,3.055,0,0,0,21.425,0H13.289a3.055,3.055,0,0,0-3.051,3.051V4.068H1.017A1.02,1.02,0,0,0,0,5.085V27.459A3.055,3.055,0,0,0,3.051,30.51H31.663a3.055,3.055,0,0,0,3.051-3.051V5.1A.987.987,0,0,0,33.7,4.068ZM12.272,3.051a1.018,1.018,0,0,1,1.017-1.017h8.136a1.018,1.018,0,0,1,1.017,1.017V4.068H12.272ZM32.286,6.1l-3.158,9.475a1.015,1.015,0,0,1-.965.7H22.442V15.255a1.017,1.017,0,0,0-1.017-1.017H13.289a1.017,1.017,0,0,0-1.017,1.017v1.017H6.551a1.015,1.015,0,0,1-.965-.7L2.428,6.1ZM20.408,16.272v2.034h-6.1V16.272ZM32.68,27.459a1.018,1.018,0,0,1-1.017,1.017H3.051a1.018,1.018,0,0,1-1.017-1.017V11.352L3.657,16.22a3.047,3.047,0,0,0,2.894,2.086h5.721v1.017a1.017,1.017,0,0,0,1.017,1.017h8.136a1.017,1.017,0,0,0,1.017-1.017V18.306h5.721a3.047,3.047,0,0,0,2.894-2.086l1.623-4.868Zm0,0" transform="translate(0.5 0.5)" fill="#a68ecc" stroke="#a68ecc" stroke-width="1"/>
</svg>
