<svg xmlns="http://www.w3.org/2000/svg" width="106.5" height="106.5" viewBox="0 0 106.5 106.5">
  <g id="wp" transform="translate(-384 -3676)">
    <path id="Caminho_624" data-name="Caminho 624" d="M83.733,60.721H77.851l16.034,45.324,8.976-25.651L95.9,60.721H89.7V56.4h27.479v4.319h-6.435l16.034,45.324,5.763-16.471c7.561-21.1-6.2-27.675-6.2-32.385a8.527,8.527,0,0,1,8.527-8.527c.255,0,.5.014.745.036a44.555,44.555,0,0,0-67.662,7.7H83.732v4.319Z" transform="translate(332.214 3648.146)" fill="#9eb8f6"/>
    <path id="Caminho_625" data-name="Caminho 625" d="M36.548,167.852a44.546,44.546,0,0,0,23.667,39.362L40.108,150.376A44.41,44.41,0,0,0,36.548,167.852Z" transform="translate(356.146 3561.398)" fill="#9eb8f6"/>
    <path id="Caminho_626" data-name="Caminho 626" d="M329.7,131.547a31.494,31.494,0,0,1-.534,12.2h.177l-.674,1.925h0a41.516,41.516,0,0,1-1.473,4.209l-15.331,42.95A44.576,44.576,0,0,0,329.7,131.547Z" transform="translate(146.324 3575.748)" fill="#9eb8f6"/>
    <path id="Caminho_627" data-name="Caminho 627" d="M166.075,284.626a44.764,44.764,0,0,0,26.883.192l-13.033-36.841Z" transform="translate(257.434 3487.016)" fill="#9eb8f6"/>
    <path id="Caminho_628" data-name="Caminho 628" d="M90.9,15.6A53.25,53.25,0,0,0,15.6,90.9,53.25,53.25,0,1,0,90.9,15.6ZM53.25,102.743A49.493,49.493,0,1,1,102.743,53.25,49.549,49.549,0,0,1,53.25,102.743Z" transform="translate(384 3676)" fill="#9eb8f6"/>
  </g>
</svg>
